<?xml version="1.0" encoding="UTF-8" standalone="no"?>
<svg xmlns:dc="http://purl.org/dc/elements/1.1/" xmlns:cc="http://creativecommons.org/ns#" xmlns:rdf="http://www.w3.org/1999/02/22-rdf-syntax-ns#" xmlns:svg="http://www.w3.org/2000/svg" xmlns="http://www.w3.org/2000/svg" xmlns:sodipodi="http://sodipodi.sourceforge.net/DTD/sodipodi-0.dtd" xmlns:inkscape="http://www.inkscape.org/namespaces/inkscape" viewBox="93.69 27.31 142.31 116.69" preserveAspectRatio="xMidYMid" width="100%" height="100%" id="svg2" version="1.1" inkscape:version="0.48.1 " sodipodi:docname="Glycyl-L-histidyl-L-lysine.svg">
  <metadata id="metadata227">
    <rdf:RDF>
      <cc:Work rdf:about="">
        <dc:format>image/svg+xml</dc:format>
        <dc:type rdf:resource="http://purl.org/dc/dcmitype/StillImage"/>
      </cc:Work>
    </rdf:RDF>
  </metadata>
  <defs id="defs225"/>
  <sodipodi:namedview pagecolor="#ffffff" bordercolor="#666666" borderopacity="1" objecttolerance="10" gridtolerance="10" guidetolerance="10" inkscape:pageopacity="0" inkscape:pageshadow="2" inkscape:window-width="640" inkscape:window-height="480" id="namedview223" showgrid="false" inkscape:zoom="2.2109864" inkscape:cx="71.155" inkscape:cy="58.345" inkscape:window-x="0" inkscape:window-y="0" inkscape:window-maximized="0" inkscape:current-layer="svg2"/>
  <clipPath id="67">
    <rect x="0.3" y="0.3" width="539.4" height="719.15" id="rect5"/>
  </clipPath>
  <g id="drawing" transform="matrix(0.97457456,0,0,0.97457456,4.1912571,2.1778162)">
    <path style="fill:#ffffff;fill-opacity:0" d="M 93.690002,27.309999 236,27.309999 236,144 93.690002,144 z" id="rect8" inkscape:connector-curvature="0"/>
    <g id="page" clip-path="url(#67)">
      <g id="Solid">
        <path d="m 121.13,80.6 0,0 0,-0.35 0,-0.35 12.47,-7.2 0,0.35 0,0.35 z" shape-rendering="geometricPrecision" id="path12" inkscape:connector-curvature="0" style="fill:#000000;fill-rule:evenodd;stroke:#000000;stroke-width:0;stroke-linejoin:miter"/>
      </g>
      <g id="g14">
        <g style="text-anchor:start" id="text16">
          <path d="m 130.1734,58.893673 c 0,-1.188146 0.31901,-2.118321 0.95703,-2.790527 0.63802,-0.672194 1.46159,-1.008294 2.47071,-1.008301 0.6608,7e-6 1.2565,0.157885 1.7871,0.473633 0.5306,0.315761 0.93506,0.756028 1.21338,1.3208 0.27832,0.564784 0.41748,1.205246 0.41748,1.921387 0,0.725914 -0.14649,1.375328 -0.43945,1.948242 -0.29297,0.572918 -0.70801,1.006674 -1.24512,1.30127 -0.53711,0.294596 -1.11654,0.441894 -1.73828,0.441894 -0.67383,0 -1.27604,-0.16276 -1.80664,-0.488281 -0.5306,-0.32552 -0.93262,-0.769856 -1.20605,-1.333008 -0.27344,-0.563148 -0.41016,-1.158851 -0.41016,-1.787109 z m 0.97656,0.01465 c 0,0.862633 0.23194,1.542157 0.6958,2.038575 0.46387,0.49642 1.04574,0.744629 1.74561,0.744629 0.71289,0 1.29964,-0.250651 1.76025,-0.751954 0.46061,-0.5013 0.69092,-1.212562 0.69092,-2.133789 0,-0.582678 -0.0985,-1.091304 -0.29541,-1.525879 -0.19694,-0.434564 -0.48503,-0.771478 -0.86426,-1.010742 -0.37923,-0.239251 -0.80485,-0.35888 -1.27685,-0.358886 -0.67058,6e-6 -1.24756,0.230312 -1.73096,0.690917 -0.4834,0.460618 -0.7251,1.22966 -0.7251,2.307129 z" style="font-size:10px;fill:#000000;font-family:Arial" id="path3206" inkscape:connector-curvature="0"/>
        </g>
      </g>
      <g id="g20">
        <path style="stroke:#000000;stroke-width:0.60000002" d="m 132.31,73.050003 0,-8.850006" id="line22" inkscape:connector-curvature="0"/>
        <path d="m 134.59,73.28 0,0 0.6,0.34 0,-9.42 -0.6,0 z" shape-rendering="geometricPrecision" id="path24" inkscape:connector-curvature="0" style="fill:#000000;fill-rule:evenodd;stroke:#000000;stroke-width:0;stroke-linejoin:miter"/>
        <path d="m 132.01,73.62 0,0 0.6,-0.34 0,-9.08 -0.6,0 z" shape-rendering="geometricPrecision" id="path26" inkscape:connector-curvature="0" style="fill:#000000;fill-rule:evenodd;stroke:#000000;stroke-width:0;stroke-linejoin:miter"/>
      </g>
      <g id="g28">
        <g style="text-anchor:start" id="text30">
          <path d="m 143.19171,83.800003 0,-7.158203 0.97168,0 3.75977,5.620117 0,-5.620117 0.9082,0 0,7.158203 -0.97168,0 -3.75977,-5.625 0,5.625 z" style="font-size:10px;fill:#000000;font-family:Arial" id="path3210" inkscape:connector-curvature="0"/>
        </g>
      </g>
      <g id="g34">
        <path d="m 133.6,73.4 0,0 0,-0.35 0,-0.35 8.36,4.83 -0.15,0.26 -0.15,0.26 z" shape-rendering="geometricPrecision" id="path36" inkscape:connector-curvature="0" style="fill:#000000;fill-rule:evenodd;stroke:#000000;stroke-width:0;stroke-linejoin:miter"/>
      </g>
      <g id="ObjectTag">
        <g id="g39">
          <g style="text-anchor:start;display:none" id="text41">
            <path d="m 154.3985,84.158371 c -0.3833,-0.839845 -0.57495,-1.702881 -0.57495,-2.589111 0,-0.590819 0.0775,-1.140745 0.23254,-1.649781 0.15503,-0.50903 0.39124,-1.012569 0.70862,-1.51062 0.20996,-0.332026 0.54565,-0.761714 1.00708,-1.289062 l 0.51636,0 c -0.28565,0.305181 -0.58777,0.734868 -0.90638,1.289062 -0.3186,0.554203 -0.54992,1.098636 -0.69396,1.633301 -0.14405,0.53467 -0.21607,1.071779 -0.21607,1.611328 0,0.805664 0.14038,1.640624 0.42114,2.504883 z" style="font-size:7.5px;font-style:italic;fill:#000000;font-family:Arial" id="path3213" inkscape:connector-curvature="0"/>
            <path d="m 156.22223,80.844162 0.70312,-0.06592 -0.007,0.186768 c 0,0.207521 0.0476,0.39734 0.14282,0.569458 0.0952,0.17212 0.25269,0.305176 0.47241,0.39917 0.21973,0.09399 0.48096,0.140991 0.7837,0.140991 0.42968,0 0.75744,-0.09399 0.98327,-0.281983 0.22583,-0.187987 0.33874,-0.402831 0.33875,-0.644531 -1e-5,-0.168455 -0.0598,-0.322264 -0.17945,-0.461426 -0.12207,-0.136716 -0.45532,-0.322263 -0.99975,-0.55664 -0.42237,-0.183103 -0.71045,-0.323484 -0.86426,-0.421143 -0.2417,-0.158688 -0.41992,-0.331418 -0.53467,-0.518188 -0.11475,-0.186764 -0.17212,-0.399777 -0.17212,-0.639038 0,-0.275875 0.0757,-0.524898 0.22705,-0.747071 0.15137,-0.222163 0.37293,-0.39184 0.66468,-0.509033 0.29174,-0.117182 0.62072,-0.175776 0.98694,-0.175781 0.437,5e-6 0.80566,0.07325 1.10595,0.219726 0.30029,0.14649 0.51819,0.341802 0.65369,0.585938 0.13549,0.244145 0.20324,0.477299 0.20325,0.699463 -1e-5,0.02198 -0.001,0.0586 -0.004,0.109863 l -0.69214,0.05493 c 0,-0.151364 -0.0134,-0.269772 -0.0403,-0.355225 -0.0488,-0.148921 -0.12451,-0.274654 -0.22705,-0.377197 -0.10254,-0.102535 -0.24353,-0.184932 -0.42297,-0.247193 -0.17945,-0.06225 -0.38026,-0.09338 -0.60242,-0.09338 -0.39063,4e-6 -0.69458,0.08789 -0.91186,0.263671 -0.16602,0.134282 -0.24903,0.312505 -0.24903,0.534668 0,0.13184 0.0342,0.249638 0.10254,0.353394 0.0684,0.103763 0.19165,0.205692 0.36987,0.305786 0.12695,0.0708 0.42847,0.211185 0.90454,0.421143 0.38574,0.170901 0.65186,0.305178 0.79834,0.402832 0.19531,0.129397 0.34546,0.286257 0.45044,0.470581 0.10498,0.184328 0.15747,0.393678 0.15747,0.628052 0,0.290528 -0.0885,0.558472 -0.2655,0.803833 -0.177,0.245361 -0.42176,0.43518 -0.73425,0.569458 -0.3125,0.134277 -0.67017,0.201415 -1.073,0.201416 -0.60791,-10e-7 -1.10413,-0.132447 -1.48865,-0.397339 -0.38452,-0.264892 -0.578,-0.741576 -0.58044,-1.430054 z" style="font-size:7.5px;font-style:italic;fill:#000000;font-family:Arial" id="path3215" inkscape:connector-curvature="0"/>
            <path d="m 162.19147,77.119797 c 0.38574,0.839848 0.57861,1.701664 0.57861,2.585449 0,0.593264 -0.0775,1.143801 -0.23254,1.651611 -0.15503,0.507814 -0.39124,1.011963 -0.70862,1.512451 -0.2124,0.332031 -0.5481,0.761718 -1.00708,1.289063 l -0.51636,0 c 0.2832,-0.307618 0.58472,-0.738526 0.90454,-1.292725 0.31983,-0.554199 0.55115,-1.098021 0.69397,-1.631469 0.14282,-0.533446 0.21423,-1.071165 0.21424,-1.61316 -1e-5,-0.80566 -0.14039,-1.639399 -0.42115,-2.50122 z" style="font-size:7.5px;font-style:italic;fill:#000000;font-family:Arial" id="path3217" inkscape:connector-curvature="0"/>
          </g>
        </g>
      </g>
      <g id="g45">
        <path d="m 150.44,78.02 0,0 -0.15,-0.26 -0.15,-0.26 8.04,-4.65 0.31,0.17 0,0.35 z" shape-rendering="geometricPrecision" id="path47" inkscape:connector-curvature="0" style="fill:#000000;fill-rule:evenodd;stroke:#000000;stroke-width:0;stroke-linejoin:miter"/>
      </g>
      <g id="g49">
        <g style="text-anchor:end" id="text51">
          <path d="m 94.422852,76.629997 0,-7.158203 0.947265,0 0,2.939453 3.720703,0 0,-2.939453 0.94727,0 0,7.158203 -0.94727,0 0,-3.374023 -3.720703,0 0,3.374023 z" style="font-size:10px;fill:#000000;font-family:Arial" id="path3220" inkscape:connector-curvature="0"/>
          <path d="m 104.62427,78.256452 0,0.633545 -3.54859,0 c -0.005,-0.158691 0.0208,-0.311279 0.0769,-0.457763 0.0903,-0.241699 0.23498,-0.479736 0.43396,-0.714112 0.19897,-0.234373 0.48645,-0.505369 0.86242,-0.812988 0.5835,-0.478513 0.97779,-0.857541 1.18287,-1.137085 0.20507,-0.279538 0.30761,-0.54382 0.30761,-0.792847 0,-0.261226 -0.0934,-0.481563 -0.28015,-0.66101 -0.18677,-0.179439 -0.4303,-0.269161 -0.73059,-0.269165 -0.31738,4e-6 -0.57129,0.09522 -0.76172,0.285644 -0.19043,0.190434 -0.28686,0.454106 -0.2893,0.791016 l -0.67749,-0.06958 c 0.0464,-0.505367 0.22094,-0.890499 0.52368,-1.155396 0.30273,-0.264887 0.70922,-0.397333 1.21948,-0.397339 0.51513,6e-6 0.92285,0.142828 1.22314,0.428467 0.30029,0.285649 0.45044,0.639653 0.45044,1.062012 0,0.214847 -0.0439,0.426029 -0.13183,0.633545 -0.0879,0.207522 -0.23377,0.426028 -0.43762,0.655517 -0.20387,0.229495 -0.54261,0.544436 -1.01624,0.944824 -0.39551,0.332033 -0.64942,0.557253 -0.76172,0.67566 -0.1123,0.118409 -0.20508,0.237427 -0.27832,0.357055 z" style="font-size:7.5px;fill:#000000;font-family:Arial" id="path3222" inkscape:connector-curvature="0"/>
          <path d="m 105.78516,76.629997 0,-7.158203 0.97168,0 3.75976,5.620117 0,-5.620117 0.9082,0 0,7.158203 -0.97167,0 -3.75977,-5.625 0,5.625 z" style="font-size:10px;fill:#000000;font-family:Arial" id="path3224" inkscape:connector-curvature="0"/>
        </g>
      </g>
      <g id="g59">
        <path d="m 121.13,79.9 0,0 0,0.35 0,0.35 -8.39,-4.85 0.15,-0.26 0.15,-0.26 z" shape-rendering="geometricPrecision" id="path61" inkscape:connector-curvature="0" style="fill:#000000;fill-rule:evenodd;stroke:#000000;stroke-width:0;stroke-linejoin:miter"/>
      </g>
      <g id="g63">
        <path d="m 158.49,73.37 0,0 0,-0.35 0.31,-0.17 12.16,7.02 0,0.35 0,0.35 z" shape-rendering="geometricPrecision" id="path65" inkscape:connector-curvature="0" style="fill:#000000;fill-rule:evenodd;stroke:#000000;stroke-width:0;stroke-linejoin:miter"/>
      </g>
      <g id="WedgeBegin">
        <path d="m 158.8,72.85 0,0 -0.31,0.17 -0.31,-0.17 -1.11,-13.23 1.42,-0.99 1.6,-1.17 z" shape-rendering="geometricPrecision" id="path68" inkscape:connector-curvature="0" style="fill:#000000;fill-rule:evenodd;stroke:#000000;stroke-width:0;stroke-linejoin:miter"/>
      </g>
      <g id="g70">
        <g style="text-anchor:start" id="text72">
          <path d="m 180.60172,76.599998 0,-7.158203 0.97167,0 3.75977,5.620118 0,-5.620118 0.9082,0 0,7.158203 -0.97168,0 -3.75976,-5.625 0,5.625 z" style="font-size:10px;fill:#000000;font-family:Arial" id="path3227" inkscape:connector-curvature="0"/>
        </g>
      </g>
      <g id="g76">
        <path d="m 170.96,80.57 0,0 0,-0.35 0,-0.35 8.1,-4.67 0.15,0.26 0.15,0.26 z" shape-rendering="geometricPrecision" id="path78" inkscape:connector-curvature="0" style="fill:#000000;fill-rule:evenodd;stroke:#000000;stroke-width:0;stroke-linejoin:miter"/>
      </g>
      <g id="g80">
        <g style="text-anchor:start" id="text82">
          <path d="m 167.5434,94.763672 c 0,-1.188146 0.31901,-2.118321 0.95703,-2.790527 0.63802,-0.672194 1.46158,-1.008294 2.4707,-1.008301 0.6608,7e-6 1.25651,0.157884 1.78711,0.473633 0.53059,0.315761 0.93505,0.756028 1.21338,1.3208 0.27831,0.564784 0.41747,1.205246 0.41748,1.921387 -1e-5,0.725914 -0.14649,1.375328 -0.43945,1.948242 -0.29298,0.572918 -0.70802,1.006674 -1.24512,1.30127 -0.53712,0.294596 -1.11654,0.441894 -1.73828,0.441894 -0.67383,0 -1.27605,-0.16276 -1.80664,-0.488281 -0.5306,-0.32552 -0.93262,-0.769856 -1.20606,-1.333008 -0.27344,-0.563149 -0.41015,-1.158851 -0.41015,-1.787109 z m 0.97656,0.01465 c 0,0.862633 0.23193,1.542157 0.6958,2.038575 0.46386,0.49642 1.04573,0.744629 1.7456,0.744628 0.71289,10e-7 1.29964,-0.25065 1.76026,-0.751953 0.4606,-0.5013 0.69091,-1.212562 0.69092,-2.133789 -1e-5,-0.582678 -0.0985,-1.091304 -0.29541,-1.525879 -0.19695,-0.434564 -0.48504,-0.771478 -0.86426,-1.010742 -0.37924,-0.239251 -0.80486,-0.35888 -1.27686,-0.358887 -0.67057,7e-6 -1.24756,0.230313 -1.73095,0.690918 -0.4834,0.460618 -0.7251,1.22966 -0.7251,2.307129 z" style="font-size:10px;fill:#000000;font-family:Arial" id="path3230" inkscape:connector-curvature="0"/>
        </g>
      </g>
      <g id="g86">
        <path style="stroke:#000000;stroke-width:0.60000002" d="m 172.25,80.220001 0,9.180001" id="line88" inkscape:connector-curvature="0"/>
        <path d="m 169.97,79.99 0,0 -0.6,-0.34 0,9.75 0.6,0 z" shape-rendering="geometricPrecision" id="path90" inkscape:connector-curvature="0" style="fill:#000000;fill-rule:evenodd;stroke:#000000;stroke-width:0;stroke-linejoin:miter"/>
        <path d="m 172.55,79.65 0,0 -0.6,0.34 0,9.41 0.6,0 z" shape-rendering="geometricPrecision" id="path92" inkscape:connector-curvature="0" style="fill:#000000;fill-rule:evenodd;stroke:#000000;stroke-width:0;stroke-linejoin:miter"/>
      </g>
      <g id="g94">
        <g id="g96">
          <g style="text-anchor:start;display:none" id="text98">
            <path d="m 191.8185,79.208366 c -0.3833,-0.839844 -0.57496,-1.70288 -0.57495,-2.589111 -1e-5,-0.590819 0.0775,-1.140745 0.23254,-1.64978 0.15503,-0.50903 0.39123,-1.01257 0.70862,-1.51062 0.20996,-0.332027 0.54565,-0.761714 1.00708,-1.289063 l 0.51636,0 c -0.28565,0.305181 -0.58778,0.734868 -0.90638,1.289063 -0.3186,0.554203 -0.54993,1.098636 -0.69397,1.6333 -0.14404,0.53467 -0.21606,1.071779 -0.21606,1.611329 0,0.805664 0.14038,1.640624 0.42114,2.504882 z" style="font-size:7.5px;font-style:italic;fill:#000000;font-family:Arial" id="path3234" inkscape:connector-curvature="0"/>
            <path d="m 193.64223,75.894157 0.70312,-0.06592 -0.007,0.186768 c 0,0.207521 0.0476,0.39734 0.14282,0.569458 0.0952,0.17212 0.25268,0.305177 0.47241,0.39917 0.21973,0.09399 0.48096,0.140992 0.78369,0.140991 0.42969,10e-7 0.75745,-0.09399 0.98328,-0.281982 0.22583,-0.187988 0.33874,-0.402831 0.33875,-0.644532 -1e-5,-0.168455 -0.0598,-0.322263 -0.17945,-0.461425 -0.12207,-0.136717 -0.45532,-0.322264 -0.99975,-0.556641 -0.42237,-0.183103 -0.71046,-0.323483 -0.86426,-0.421142 -0.2417,-0.158689 -0.41993,-0.331418 -0.53467,-0.518189 -0.11475,-0.186764 -0.17212,-0.399776 -0.17212,-0.639038 0,-0.275875 0.0757,-0.524898 0.22705,-0.74707 0.15137,-0.222163 0.37292,-0.391841 0.66467,-0.509034 0.29175,-0.117182 0.62073,-0.175775 0.98694,-0.175781 0.43701,6e-6 0.80566,0.07325 1.10596,0.219727 0.30029,0.146489 0.51818,0.341802 0.65369,0.585937 0.13549,0.244145 0.20324,0.477299 0.20324,0.699463 0,0.02198 -0.001,0.0586 -0.004,0.109863 l -0.69214,0.05493 c 0,-0.151363 -0.0134,-0.269771 -0.0403,-0.355225 -0.0488,-0.148921 -0.12452,-0.274653 -0.22705,-0.377197 -0.10254,-0.102534 -0.24354,-0.184932 -0.42297,-0.247192 -0.17945,-0.06225 -0.38026,-0.09338 -0.60242,-0.09338 -0.39063,5e-6 -0.69458,0.0879 -0.91187,0.263672 -0.16601,0.134282 -0.24902,0.312504 -0.24902,0.534668 0,0.13184 0.0342,0.249637 0.10254,0.353393 0.0684,0.103764 0.19165,0.205692 0.36987,0.305787 0.12695,0.0708 0.42847,0.211184 0.90454,0.421142 0.38574,0.170901 0.65185,0.305179 0.79834,0.402832 0.19531,0.129397 0.34546,0.286257 0.45044,0.470581 0.10498,0.184328 0.15747,0.393679 0.15747,0.628052 0,0.290528 -0.0885,0.558473 -0.2655,0.803833 -0.17701,0.245362 -0.42176,0.435181 -0.73425,0.569458 -0.31251,0.134277 -0.67017,0.201416 -1.073,0.201416 -0.60791,0 -1.10413,-0.132446 -1.48865,-0.397339 -0.38452,-0.264892 -0.578,-0.741576 -0.58044,-1.430054 z" style="font-size:7.5px;font-style:italic;fill:#000000;font-family:Arial" id="path3236" inkscape:connector-curvature="0"/>
            <path d="m 199.61147,72.169792 c 0.38574,0.839849 0.57861,1.701664 0.57861,2.585449 0,0.593264 -0.0775,1.143801 -0.23255,1.651612 -0.15503,0.507813 -0.39123,1.011963 -0.70861,1.512451 -0.21241,0.332031 -0.5481,0.761718 -1.00708,1.289062 l -0.51636,0 c 0.2832,-0.307618 0.58472,-0.738526 0.90454,-1.292724 0.31982,-0.554199 0.55115,-1.098022 0.69397,-1.63147 0.14282,-0.533445 0.21423,-1.071165 0.21423,-1.613159 0,-0.80566 -0.14038,-1.6394 -0.42114,-2.501221 z" style="font-size:7.5px;font-style:italic;fill:#000000;font-family:Arial" id="path3238" inkscape:connector-curvature="0"/>
          </g>
        </g>
      </g>
      <g id="g102">
        <path d="m 187.54,75.73 0,0 0.15,-0.26 0.15,-0.26 8.07,4.66 0,0.35 0,0.35 z" shape-rendering="geometricPrecision" id="path104" inkscape:connector-curvature="0" style="fill:#000000;fill-rule:evenodd;stroke:#000000;stroke-width:0;stroke-linejoin:miter"/>
      </g>
      <g id="g106">
        <path d="m 195.91,80.57 0,0 0,-0.35 0,-0.35 12.47,-7.2 0,0.35 0,0.35 z" shape-rendering="geometricPrecision" id="path108" inkscape:connector-curvature="0" style="fill:#000000;fill-rule:evenodd;stroke:#000000;stroke-width:0;stroke-linejoin:miter"/>
      </g>
      <g id="g110">
        <g style="text-anchor:start" id="text112">
          <path d="m 217.38339,80.393669 c 0,-1.188146 0.31901,-2.118321 0.95703,-2.790527 0.63802,-0.672194 1.46159,-1.008294 2.47071,-1.008301 0.6608,7e-6 1.2565,0.157885 1.78711,0.473633 0.53059,0.315762 0.93505,0.756028 1.21337,1.320801 0.27832,0.564783 0.41748,1.205245 0.41749,1.921386 -10e-6,0.725915 -0.1465,1.375328 -0.43946,1.948243 -0.29297,0.572917 -0.70801,1.006673 -1.24511,1.301269 -0.53712,0.294596 -1.11655,0.441894 -1.73829,0.441895 -0.67383,-10e-7 -1.27604,-0.162761 -1.80664,-0.488282 -0.5306,-0.32552 -0.93262,-0.769855 -1.20605,-1.333007 -0.27344,-0.563149 -0.41016,-1.158852 -0.41016,-1.78711 z m 0.97656,0.01465 c 0,0.862632 0.23194,1.542156 0.69581,2.038574 0.46386,0.49642 1.04573,0.744629 1.7456,0.744629 0.71289,0 1.29964,-0.25065 1.76025,-0.751953 0.46061,-0.501301 0.69092,-1.212563 0.69092,-2.133789 0,-0.582679 -0.0985,-1.091304 -0.29541,-1.525879 -0.19694,-0.434565 -0.48503,-0.771479 -0.86426,-1.010743 -0.37923,-0.239251 -0.80485,-0.35888 -1.27685,-0.358886 -0.67058,6e-6 -1.24756,0.230312 -1.73096,0.690918 -0.4834,0.460617 -0.7251,1.229659 -0.7251,2.307129 z" style="font-size:10px;fill:#000000;font-family:Arial" id="path3241" inkscape:connector-curvature="0"/>
          <path d="m 225.47421,83.879997 0,-7.158203 0.94727,0 0,2.939453 3.7207,0 0,-2.939453 0.94727,0 0,7.158203 -0.94727,0 0,-3.374023 -3.7207,0 0,3.374023 z" style="font-size:10px;fill:#000000;font-family:Arial" id="path3243" inkscape:connector-curvature="0"/>
        </g>
      </g>
      <g id="g116">
        <path d="m 208.38,73.37 0,0 0,-0.35 0,-0.35 8.08,4.68 -0.15,0.26 -0.15,0.26 z" shape-rendering="geometricPrecision" id="path118" inkscape:connector-curvature="0" style="fill:#000000;fill-rule:evenodd;stroke:#000000;stroke-width:0;stroke-linejoin:miter"/>
      </g>
      <g id="g120">
        <g style="text-anchor:start" id="text122">
          <path d="m 204.9534,58.86367 c 0,-1.188146 0.31901,-2.118321 0.95703,-2.790527 0.63802,-0.672194 1.46159,-1.008293 2.4707,-1.008301 0.66081,8e-6 1.25651,0.157885 1.78711,0.473633 0.5306,0.315762 0.93506,0.756028 1.21338,1.320801 0.27832,0.564783 0.41748,1.205245 0.41748,1.921387 0,0.725914 -0.14649,1.375327 -0.43945,1.948242 -0.29298,0.572917 -0.70801,1.006674 -1.24512,1.301269 -0.53711,0.294597 -1.11654,0.441895 -1.73828,0.441895 -0.67383,0 -1.27604,-0.162761 -1.80664,-0.488281 -0.5306,-0.325521 -0.93262,-0.769856 -1.20605,-1.333008 -0.27344,-0.563149 -0.41016,-1.158852 -0.41016,-1.78711 z m 0.97656,0.01465 c 0,0.862633 0.23193,1.542157 0.6958,2.038574 0.46387,0.49642 1.04574,0.74463 1.74561,0.744629 0.71288,10e-7 1.29964,-0.25065 1.76025,-0.751953 0.46061,-0.5013 0.69091,-1.212563 0.69092,-2.133789 -1e-5,-0.582678 -0.0985,-1.091304 -0.29541,-1.525879 -0.19695,-0.434565 -0.48503,-0.771479 -0.86426,-1.010742 -0.37923,-0.239252 -0.80485,-0.358881 -1.27685,-0.358887 -0.67058,6e-6 -1.24756,0.230312 -1.73096,0.690918 -0.4834,0.460617 -0.7251,1.229659 -0.7251,2.307129 z" style="font-size:10px;fill:#000000;font-family:Arial" id="path3246" inkscape:connector-curvature="0"/>
        </g>
      </g>
      <g id="g126">
        <path style="stroke:#000000;stroke-width:0.60000002" d="m 207.09,73.019997 0,-8.919999" id="line128" inkscape:connector-curvature="0"/>
        <path d="m 209.37,73.25 0,0 0.6,0.34 0,-9.49 -0.6,0 z" shape-rendering="geometricPrecision" id="path130" inkscape:connector-curvature="0" style="fill:#000000;fill-rule:evenodd;stroke:#000000;stroke-width:0;stroke-linejoin:miter"/>
        <path d="m 206.79,73.59 0,0 0.6,-0.34 0,-9.15 -0.6,0 z" shape-rendering="geometricPrecision" id="path132" inkscape:connector-curvature="0" style="fill:#000000;fill-rule:evenodd;stroke:#000000;stroke-width:0;stroke-linejoin:miter"/>
      </g>
      <g id="Wedged Hash Begin Bond">
        <path d="m 195.61,80.22 0,0 0.6,0 0.05,0.6 -0.7,0 z" shape-rendering="geometricPrecision" id="path135" inkscape:connector-curvature="0" style="fill:#000000;fill-rule:evenodd;stroke:#000000;stroke-width:0;stroke-linejoin:miter"/>
        <path d="m 195.38,82.98 0,0 1.06,0 0.05,0.6 -1.16,0 z" shape-rendering="geometricPrecision" id="path137" inkscape:connector-curvature="0" style="fill:#000000;fill-rule:evenodd;stroke:#000000;stroke-width:0;stroke-linejoin:miter"/>
        <path d="m 195.15,85.74 0,0 1.52,0 0.05,0.6 -1.62,0 z" shape-rendering="geometricPrecision" id="path139" inkscape:connector-curvature="0" style="fill:#000000;fill-rule:evenodd;stroke:#000000;stroke-width:0;stroke-linejoin:miter"/>
        <path d="m 194.92,88.5 0,0 1.98,0 0.05,0.6 -2.08,0 z" shape-rendering="geometricPrecision" id="path141" inkscape:connector-curvature="0" style="fill:#000000;fill-rule:evenodd;stroke:#000000;stroke-width:0;stroke-linejoin:miter"/>
        <path d="m 194.69,91.26 0,0 2.44,0 0.05,0.6 -2.54,0 z" shape-rendering="geometricPrecision" id="path143" inkscape:connector-curvature="0" style="fill:#000000;fill-rule:evenodd;stroke:#000000;stroke-width:0;stroke-linejoin:miter"/>
        <path d="m 194.46,94.02 0,0 2.9,0 0.05,0.6 -3,0 z" shape-rendering="geometricPrecision" id="path145" inkscape:connector-curvature="0" style="fill:#000000;fill-rule:evenodd;stroke:#000000;stroke-width:0;stroke-linejoin:miter"/>
      </g>
      <g id="g147">
        <path d="m 195.76,94.88 0,0 0.15,-0.26 0.15,-0.26 12.62,7.29 -0.3,0.17 -0.3,0.17 z" shape-rendering="geometricPrecision" id="path149" inkscape:connector-curvature="0" style="fill:#000000;fill-rule:evenodd;stroke:#000000;stroke-width:0;stroke-linejoin:miter"/>
      </g>
      <g id="g151">
        <path d="m 208.08,101.99 0,0 0.3,-0.17 0.3,-0.17 0,14.4 -0.3,0.17 -0.3,0.17 z" shape-rendering="geometricPrecision" id="path153" inkscape:connector-curvature="0" style="fill:#000000;fill-rule:evenodd;stroke:#000000;stroke-width:0;stroke-linejoin:miter"/>
      </g>
      <g id="g155">
        <path d="m 208.08,116.39 0,0 0.3,-0.17 0.3,-0.17 12.47,7.2 -0.3,0.17 -0.3,0.17 z" shape-rendering="geometricPrecision" id="path157" inkscape:connector-curvature="0" style="fill:#000000;fill-rule:evenodd;stroke:#000000;stroke-width:0;stroke-linejoin:miter"/>
      </g>
      <g id="g159">
        <g style="text-anchor:start" id="text161">
          <path d="m 218.01172,141.39999 0,-7.1582 0.97168,0 3.75976,5.62012 0,-5.62012 0.90821,0 0,7.1582 -0.97168,0 -3.75977,-5.625 0,5.625 z" style="font-size:10px;fill:#000000;font-family:Arial" id="path3250" inkscape:connector-curvature="0"/>
          <path d="m 225.27734,141.39999 0,-7.1582 0.94727,0 0,2.93945 3.7207,0 0,-2.93945 0.94727,0 0,7.1582 -0.94727,0 0,-3.37402 -3.7207,0 0,3.37402 z" style="font-size:10px;fill:#000000;font-family:Arial" id="path3252" inkscape:connector-curvature="0"/>
          <path d="m 235.47876,143.02645 0,0.63354 -3.54858,0 c -0.005,-0.15869 0.0207,-0.31128 0.0769,-0.45776 0.0903,-0.2417 0.23498,-0.47974 0.43396,-0.71411 0.19897,-0.23437 0.48645,-0.50537 0.86243,-0.81299 0.58349,-0.47851 0.97778,-0.85754 1.18286,-1.13708 0.20507,-0.27954 0.30761,-0.54382 0.30762,-0.79285 -1e-5,-0.26123 -0.0934,-0.48156 -0.28016,-0.66101 -0.18677,-0.17944 -0.4303,-0.26916 -0.73059,-0.26917 -0.31738,1e-5 -0.57129,0.0952 -0.76172,0.28565 -0.19043,0.19043 -0.28686,0.4541 -0.2893,0.79101 l -0.67749,-0.0696 c 0.0464,-0.50536 0.22094,-0.89049 0.52368,-1.15539 0.30273,-0.26489 0.70923,-0.39734 1.21948,-0.39734 0.51514,0 0.92285,0.14283 1.22315,0.42847 0.30029,0.28564 0.45043,0.63965 0.45044,1.06201 -1e-5,0.21484 -0.0439,0.42603 -0.13184,0.63354 -0.0879,0.20752 -0.23377,0.42603 -0.43762,0.65552 -0.20386,0.22949 -0.54261,0.54444 -1.01624,0.94482 -0.39551,0.33204 -0.64941,0.55726 -0.76172,0.67566 -0.1123,0.11841 -0.20508,0.23743 -0.27832,0.35706 z" style="font-size:7.5px;fill:#000000;font-family:Arial" id="path3254" inkscape:connector-curvature="0"/>
        </g>
      </g>
      <g id="g167">
        <path d="m 220.55,123.59 0,0 0.3,-0.17 0.3,-0.17 0,9.45 -0.3,0 -0.3,0 z" shape-rendering="geometricPrecision" id="path169" inkscape:connector-curvature="0" style="fill:#000000;fill-rule:evenodd;stroke:#000000;stroke-width:0;stroke-linejoin:miter"/>
      </g>
      <g id="g171">
        <path d="m 160.09,57.46 0,0 -1.6,1.17 -1.42,0.99 11.29,-11.28 0.32,0.1 0.1,0.32 z" shape-rendering="geometricPrecision" id="path173" inkscape:connector-curvature="0" style="fill:#000000;fill-rule:evenodd;stroke:#000000;stroke-width:0;stroke-linejoin:miter"/>
      </g>
      <g id="g175">
        <g style="text-anchor:start" id="text177">
          <path d="m 186.60172,41.439999 0,-7.158203 0.97167,0 3.75977,5.620117 0,-5.620117 0.9082,0 0,7.158203 -0.97168,0 -3.75976,-5.625 0,5.625 z" style="font-size:10px;fill:#000000;font-family:Arial" id="path3257" inkscape:connector-curvature="0"/>
        </g>
      </g>
      <g id="g181">
        <g style="text-anchor:end" id="text183">
          <path d="m 156.36766,37.790001 0,-7.158203 0.94727,0 0,2.939453 3.7207,0 0,-2.939453 0.94726,0 0,7.158203 -0.94726,0 0,-3.374024 -3.7207,0 0,3.374024 z" style="font-size:10px;fill:#000000;font-family:Arial" id="path3260" inkscape:connector-curvature="0"/>
          <path d="m 163.55516,37.790001 0,-7.158203 0.97168,0 3.75977,5.620117 0,-5.620117 0.9082,0 0,7.158203 -0.97168,0 -3.75977,-5.625 0,5.625 z" style="font-size:10px;fill:#000000;font-family:Arial" id="path3262" inkscape:connector-curvature="0"/>
        </g>
      </g>
      <g id="g187">
        <path d="m 168.78,48.76 0,0 -0.1,-0.32 0.26,-0.26 13.79,2.19 0.17,0.33 0.17,0.33 z" shape-rendering="geometricPrecision" id="path189" inkscape:connector-curvature="0" style="fill:#000000;fill-rule:evenodd;stroke:#000000;stroke-width:0;stroke-linejoin:miter"/>
        <path style="stroke:#000000;stroke-width:0.60000002" d="m 170.94,46.18 10.51,1.66" id="line191" inkscape:connector-curvature="0"/>
      </g>
      <g id="g193">
        <path d="m 183.07,51.03 0,0 -0.17,-0.33 -0.17,-0.33 3.86,-7.58 0.27,0.14 0.27,0.13 z" shape-rendering="geometricPrecision" id="path195" inkscape:connector-curvature="0" style="fill:#000000;fill-rule:evenodd;stroke:#000000;stroke-width:0;stroke-linejoin:miter"/>
      </g>
      <g id="g197">
        <path d="m 185.68,33.68 0,0 -0.21,0.21 -0.21,0.21 -6.07,-6.05 0.06,-0.37 0.06,-0.37 z" shape-rendering="geometricPrecision" id="path199" inkscape:connector-curvature="0" style="fill:#000000;fill-rule:evenodd;stroke:#000000;stroke-width:0;stroke-linejoin:miter"/>
        <path style="stroke:#000000;stroke-width:0.60000002" d="m 183.95,35.41 -5.11,-5.110001" id="line201" inkscape:connector-curvature="0"/>
      </g>
      <g id="g203">
        <path d="m 179.31,27.31 0,0 -0.06,0.37 -0.06,0.37 -8.43,4.29 -0.13,-0.26 -0.14,-0.27 z" shape-rendering="geometricPrecision" id="path205" inkscape:connector-curvature="0" style="fill:#000000;fill-rule:evenodd;stroke:#000000;stroke-width:0;stroke-linejoin:miter"/>
      </g>
      <g id="g207">
        <path d="m 166.64,37.53 0,0 0.3,-0.05 0.29,-0.05 1.71,10.75 -0.26,0.26 -0.32,-0.1 z" shape-rendering="geometricPrecision" id="path209" inkscape:connector-curvature="0" style="fill:#000000;fill-rule:evenodd;stroke:#000000;stroke-width:0;stroke-linejoin:miter"/>
      </g>
      <g id="g211">
        <g style="text-anchor:start" id="text213">
          <path d="m 143.11078,93 0,-7.158203 0.94726,0 0,2.939453 3.72071,0 0,-2.939453 0.94726,0 0,7.158203 -0.94726,0 0,-3.374023 -3.72071,0 0,3.374023 z" style="font-size:10px;fill:#000000;font-family:Arial" id="path3267" inkscape:connector-curvature="0"/>
        </g>
      </g>
      <g id="g217">
        <g style="text-anchor:start" id="text219">
          <path d="m 180.61078,67.129997 0,-7.158203 0.94726,0 0,2.939453 3.72071,0 0,-2.939453 0.94726,0 0,7.158203 -0.94726,0 0,-3.374023 -3.72071,0 0,3.374023 z" style="font-size:10px;fill:#000000;font-family:Arial" id="path3270" inkscape:connector-curvature="0"/>
        </g>
      </g>
    </g>
  </g>
</svg>